<?xml version="1.0" encoding="utf-8"?>
<!-- Generator: Adobe Illustrator 16.0.3, SVG Export Plug-In . SVG Version: 6.00 Build 0)  -->
<!DOCTYPE svg PUBLIC "-//W3C//DTD SVG 1.1//EN" "http://www.w3.org/Graphics/SVG/1.1/DTD/svg11.dtd">
<svg version="1.1" id="Capa_1" xmlns="http://www.w3.org/2000/svg" xmlns:xlink="http://www.w3.org/1999/xlink" x="0px" y="0px"
	 width="615px" height="499px" viewBox="112.445 49.14 615 499" enable-background="new 112.445 49.14 615 499"
	 xml:space="preserve">
<path stroke="#000000" stroke-width="3" stroke-miterlimit="10" d="M365.612,226.709c0.884,0.588,1.881,0.869,2.868,0.869
	c1.676,0,3.323-0.812,4.321-2.312c15.274-22.957,33.448-40.341,54.015-51.67c2.508-1.382,3.422-4.534,2.04-7.042
	s-4.534-3.422-7.043-2.04c-22.042,12.142-41.437,30.648-57.645,55.008C362.581,221.905,363.228,225.123,365.612,226.709z"/>
<path stroke="#000000" stroke-width="6" stroke-miterlimit="10" d="M128.49,480.376c19.343,0,29.132-4.184,38.6-8.23
	c8.899-3.803,17.305-7.396,34.524-7.396c17.218,0,25.623,3.594,34.522,7.396c9.469,4.047,19.258,8.232,38.603,8.232
	c19.34,0,29.127-4.184,38.593-8.23c8.898-3.805,17.304-7.396,34.521-7.396s25.622,3.592,34.52,7.396
	c9.467,4.047,19.255,8.23,38.595,8.23s29.127-4.184,38.594-8.23c8.896-3.805,17.302-7.396,34.52-7.396
	c17.217,0,25.621,3.592,34.519,7.396c9.467,4.047,19.256,8.23,38.597,8.23c19.337,0,29.123-4.184,38.589-8.23
	c8.896-3.805,17.3-7.396,34.515-7.396c17.213,0,25.616,3.592,34.512,7.396c9.466,4.045,19.252,8.23,38.589,8.23
	c2.864,0,5.185-2.32,5.185-5.186c0-2.863-2.32-5.184-5.185-5.184c-17.213,0-25.616-3.594-34.512-7.396
	c-9.466-4.045-19.252-8.23-38.589-8.23c-19.34,0-29.126,4.186-38.592,8.23c-8.896,3.803-17.3,7.396-34.512,7.396
	c-17.217,0-25.621-3.592-34.52-7.396c-9.467-4.045-19.255-8.23-38.596-8.23s-29.13,4.186-38.597,8.232
	c-4.596,1.963-9.067,3.867-14.681,5.254c0.857-81.541,19.896-113.434,30.288-124.795v3.693c0,5.666,4.61,10.277,10.277,10.277
	h66.026c5.667,0,10.276-4.611,10.276-10.277v-3.994h154.4c2.864,0,5.185-2.32,5.185-5.184c0-2.865-2.32-5.186-5.185-5.186H557.673
	v-15.859h129.223c2.864,0,5.185-2.32,5.185-5.184c0-2.865-2.32-5.186-5.185-5.186H557.673v-26.229h19.836
	c2.864,0,5.185-2.32,5.185-5.185c0-2.865-2.32-5.185-5.185-5.185h-19.836V116.476h31.221c2.864,0,5.185-2.32,5.185-5.185
	c0-2.865-2.32-5.185-5.185-5.185h-31.221V82.927h154.286c2.864,0,5.185-2.32,5.185-5.185s-2.32-5.185-5.185-5.185H557.673v-3.996
	c0-5.667-4.61-10.276-10.276-10.276h-66.027c-5.666,0-10.276,4.61-10.276,10.276v21.306c-14.153,1.154-55.021,8.002-95.92,48.261
	c-28.404,27.959-50.99,66.469-67.13,114.458c-19.715,58.617-29.838,131.742-30.118,217.381c-1.028,0.027-2.087,0.043-3.186,0.043
	c-17.222,0-25.627-3.592-34.526-7.396c-9.468-4.047-19.258-8.23-38.599-8.23c-19.342,0-29.132,4.184-38.6,8.23
	c-8.899,3.805-17.305,7.396-34.524,7.396c-2.863,0-5.185,2.32-5.185,5.186C123.305,478.056,125.626,480.376,128.49,480.376z
	 M481.462,68.652h17.665V198.31c0,2.864,2.32,5.185,5.185,5.185s5.185-2.32,5.185-5.185V68.652h37.806v278.021h-65.841
	L481.462,68.652L481.462,68.652z M382.138,145.82c37.554-37.128,75.612-44.167,88.955-45.502V329.31
	c-8.96,5.926-39.901,34.08-40.669,140.275c-2.845,0.268-5.962,0.422-9.456,0.422c-17.217,0-25.62-3.592-34.519-7.396
	c-9.467-4.047-19.256-8.23-38.595-8.23c-13.864,0-22.811,2.154-30.259,4.861c0.484-55.605,6.412-92.541,12.221-121.453
	c0.563-2.807-1.256-5.539-4.063-6.104c-2.808-0.557-5.54,1.254-6.104,4.061c-8.542,42.527-12.284,80.924-12.442,127.738
	c-5.483,2.314-11.059,4.451-18.906,5.613C289.087,277.985,339.656,187.825,382.138,145.82z"/>
<path stroke="#000000" stroke-width="10" stroke-miterlimit="10" d="M713.4,526.628c-17.213,0-25.616-3.592-34.512-7.398
	c-9.466-4.045-19.252-8.23-38.589-8.23c-19.34,0-29.126,4.186-38.592,8.232c-8.896,3.803-17.3,7.396-34.512,7.396
	c-17.217,0-25.621-3.592-34.52-7.398c-9.466-4.045-19.255-8.23-38.596-8.23s-29.13,4.186-38.597,8.232
	c-8.896,3.803-17.301,7.396-34.517,7.396c-17.217,0-25.621-3.592-34.519-7.398c-9.467-4.045-19.256-8.23-38.596-8.23
	c-19.341,0-29.129,4.186-38.598,8.232c-8.897,3.803-17.301,7.396-34.517,7.396c-17.222,0-25.627-3.592-34.526-7.398
	c-9.468-4.045-19.258-8.23-38.599-8.23c-19.342,0-29.132,4.186-38.6,8.23c-8.899,3.805-17.305,7.398-34.524,7.398
	c-2.863,0-5.185,2.32-5.185,5.186c0,2.863,2.321,5.184,5.185,5.184c19.343,0,29.132-4.184,38.6-8.23
	c8.899-3.805,17.305-7.398,34.524-7.398c17.218,0,25.623,3.594,34.522,7.396c9.469,4.047,19.258,8.232,38.603,8.232
	c19.34,0,29.127-4.184,38.593-8.23c8.898-3.805,17.304-7.398,34.521-7.398s25.622,3.594,34.52,7.398
	c9.467,4.047,19.255,8.23,38.595,8.23s29.127-4.184,38.594-8.23c8.896-3.805,17.303-7.398,34.52-7.398s25.621,3.594,34.519,7.398
	c9.467,4.047,19.256,8.23,38.597,8.23c19.337,0,29.123-4.184,38.589-8.23c8.896-3.805,17.3-7.398,34.515-7.398
	c17.213,0,25.616,3.594,34.512,7.398c9.466,4.045,19.252,8.23,38.589,8.23c2.864,0,5.185-2.32,5.185-5.184
	C718.584,528.949,716.264,526.628,713.4,526.628z"/>
</svg>
