<?xml version="1.0" encoding="UTF-8" standalone="no"?>
<svg
   xmlns:dc="http://purl.org/dc/elements/1.1/"
   xmlns:cc="http://creativecommons.org/ns#"
   xmlns:rdf="http://www.w3.org/1999/02/22-rdf-syntax-ns#"
   xmlns:svg="http://www.w3.org/2000/svg"
   xmlns="http://www.w3.org/2000/svg"
   xmlns:sodipodi="http://sodipodi.sourceforge.net/DTD/sodipodi-0.dtd"
   xmlns:inkscape="http://www.inkscape.org/namespaces/inkscape"
   viewBox="0 0 576 512"
   version="1.1"
   id="svg4"
   sodipodi:docname="home-alt.svg"
   inkscape:version="0.92.3 (2405546, 2018-03-11)">
  <metadata
     id="metadata10">
    <rdf:RDF>
      <cc:Work
         rdf:about="">
        <dc:format>image/svg+xml</dc:format>
        <dc:type
           rdf:resource="http://purl.org/dc/dcmitype/StillImage" />
      </cc:Work>
    </rdf:RDF>
  </metadata>
  <defs
     id="defs8" />
  <sodipodi:namedview
     pagecolor="#ffffff"
     bordercolor="#666666"
     borderopacity="1"
     objecttolerance="10"
     gridtolerance="10"
     guidetolerance="10"
     inkscape:pageopacity="0"
     inkscape:pageshadow="2"
     inkscape:window-width="640"
     inkscape:window-height="480"
     id="namedview6"
     showgrid="false"
     inkscape:zoom="0.4609375"
     inkscape:cx="288"
     inkscape:cy="256"
     inkscape:window-x="0"
     inkscape:window-y="33"
     inkscape:window-maximized="0"
     inkscape:current-layer="svg4" />
  <path
     d="M541 229.16l-232.85-190a32.16 32.16 0 0 0-40.38 0L35 229.16a8 8 0 0 0-1.16 11.24l10.1 12.41a8 8 0 0 0 11.2 1.19L96 220.62v243a16 16 0 0 0 16 16h128a16 16 0 0 0 16-16v-128l64 .3V464a16 16 0 0 0 16 16l128-.33a16 16 0 0 0 16-16V220.62L520.86 254a8 8 0 0 0 11.25-1.16l10.1-12.41a8 8 0 0 0-1.21-11.27zm-93.11 218.59h.1l-96 .3V319.88a16.05 16.05 0 0 0-15.95-16l-96-.27a16 16 0 0 0-16.05 16v128.14H128V194.51L288 63.94l160 130.57z"
     id="path2"
     style="fill:#333333" />
</svg>
