<?xml version="1.0" encoding="UTF-8" standalone="no"?>
<!-- Generator: Adobe Illustrator 21.1.0, SVG Export Plug-In . SVG Version: 6.00 Build 0)  -->

<svg
   xmlns:dc="http://purl.org/dc/elements/1.1/"
   xmlns:cc="http://creativecommons.org/ns#"
   xmlns:rdf="http://www.w3.org/1999/02/22-rdf-syntax-ns#"
   xmlns:svg="http://www.w3.org/2000/svg"
   xmlns="http://www.w3.org/2000/svg"
   xmlns:sodipodi="http://sodipodi.sourceforge.net/DTD/sodipodi-0.dtd"
   xmlns:inkscape="http://www.inkscape.org/namespaces/inkscape"
   version="1.1"
   id="Capa_1"
   x="0px"
   y="0px"
   viewBox="0 0 512 729.5"
   style="enable-background:new 0 0 512 729.5;"
   xml:space="preserve"
   sodipodi:docname="icon-map-marker.svg"
   inkscape:version="0.92.3 (2405546, 2018-03-11)"
   inkscape:export-filename="/home/ricardo/Workspace/NodeJs/gt-minera-tca-front/src/assets/media/images/icon-map-marker.svg.png"
   inkscape:export-xdpi="4.2111034"
   inkscape:export-ydpi="4.2111034"><metadata
   id="metadata17"><rdf:RDF><cc:Work
       rdf:about=""><dc:format>image/svg+xml</dc:format><dc:type
         rdf:resource="http://purl.org/dc/dcmitype/StillImage" /></cc:Work></rdf:RDF></metadata><defs
   id="defs15" /><sodipodi:namedview
   pagecolor="#ffffff"
   bordercolor="#666666"
   borderopacity="1"
   objecttolerance="10"
   gridtolerance="10"
   guidetolerance="10"
   inkscape:pageopacity="0"
   inkscape:pageshadow="2"
   inkscape:window-width="2560"
   inkscape:window-height="1019"
   id="namedview13"
   showgrid="false"
   inkscape:zoom="0.32350925"
   inkscape:cx="-1066.9915"
   inkscape:cy="364.75"
   inkscape:window-x="0"
   inkscape:window-y="33"
   inkscape:window-maximized="1"
   inkscape:current-layer="Capa_1" />
<style
   type="text/css"
   id="style2">
	.st0{fill:#5FA9D4;}
</style>
<g
   id="g10"
   style="fill:#31793a;fill-opacity:1"
   inkscape:export-xdpi="4.2111034"
   inkscape:export-ydpi="4.2111034">
	<g
   id="g8"
   style="fill:#31793a;fill-opacity:1">
		<g
   id="g6"
   style="fill:#31793a;fill-opacity:1">
			<path
   class="st0"
   d="M256,0C114.6,0,0,114.6,0,256c0,10.8,0.9,21.4,2.2,31.8c21.9,200,237.2,430.4,237.2,430.4     c3.8,4.3,7.5,6.9,11.1,8.9l0.2,0.1l7.2,2.3l7.2-2.3l0.2-0.1c3.6-1.9,7.3-4.7,11.1-8.9c0,0,212.2-230.9,233.6-430.9     c1.3-10.3,2.1-20.8,2.1-31.4C512,114.6,397.4,0,256,0z M256,420.7c-90.8,0-164.7-73.9-164.7-164.7S165.2,91.3,256,91.3     S420.6,165.2,420.6,256S346.8,420.7,256,420.7z"
   id="path4"
   style="fill:#31793a;fill-opacity:1" />
		</g>
	</g>
</g>
</svg>