<?xml version="1.0" encoding="UTF-8" standalone="no"?>
<svg
   xmlns:dc="http://purl.org/dc/elements/1.1/"
   xmlns:cc="http://creativecommons.org/ns#"
   xmlns:rdf="http://www.w3.org/1999/02/22-rdf-syntax-ns#"
   xmlns:svg="http://www.w3.org/2000/svg"
   xmlns="http://www.w3.org/2000/svg"
   xmlns:sodipodi="http://sodipodi.sourceforge.net/DTD/sodipodi-0.dtd"
   xmlns:inkscape="http://www.inkscape.org/namespaces/inkscape"
   version="1.0"
   width="1077.000000pt"
   height="145.000000pt"
   viewBox="0 0 1077.000000 145.000000"
   preserveAspectRatio="xMidYMid meet"
   id="svg26"
   sodipodi:docname="Marca-Exar19-Corel-Full.svg"
   inkscape:version="0.92.3 (2405546, 2018-03-11)">
  <metadata
     id="metadata32">
    <rdf:RDF>
      <cc:Work
         rdf:about="">
        <dc:format>image/svg+xml</dc:format>
        <dc:type
           rdf:resource="http://purl.org/dc/dcmitype/StillImage" />
      </cc:Work>
    </rdf:RDF>
  </metadata>
  <defs
     id="defs30" />
  <sodipodi:namedview
     pagecolor="#ffffff"
     bordercolor="#666666"
     borderopacity="1"
     objecttolerance="10"
     gridtolerance="10"
     guidetolerance="10"
     inkscape:pageopacity="0"
     inkscape:pageshadow="2"
     inkscape:window-width="2560"
     inkscape:window-height="1019"
     id="namedview28"
     showgrid="false"
     inkscape:zoom="0.53760446"
     inkscape:cx="470.79698"
     inkscape:cy="-117.16844"
     inkscape:window-x="0"
     inkscape:window-y="33"
     inkscape:window-maximized="1"
     inkscape:current-layer="svg26" />
  <path
     style="fill:#000000;stroke:none;stroke-width:0.1"
     inkscape:connector-curvature="0"
     id="path2"
     d="m 171,7 v 7 h 7 7 V 7 0 h -7 -7 z" />
  <path
     style="fill:#000000;stroke:none;stroke-width:0.1"
     inkscape:connector-curvature="0"
     id="path4"
     d="M 0,72.5 V 143 H 5.5 11 L 11.2,83.3 11.5,23.7 38.1,62.6 C 52.7,84 65.3,101.5 66,101.5 66.7,101.5 79.3,84 93.9,62.6 l 26.6,-38.9 0.3,59.6 0.2,59.7 h 6 6 V 72.5 2 h -5.7 -5.8 L 94,42.9 C 78.9,65.4 66.2,83.6 65.9,83.4 65.6,83.2 53,64.9 38,42.5 L 10.6,2 H 5.3 0 Z" />
  <path
     style="fill:#0078ad;stroke:none;stroke-width:0.1;fill-opacity:1"
     inkscape:connector-curvature="0"
     id="path6"
     d="M 649,72.5 V 143 H 702.5 756 V 129 115 H 718 680 V 100.5 86 h 33 33 V 72 58 H 713 680 V 44 30 H 717.5 755 V 16 2 h -53 -53 z" />
  <path
     style="fill:#0078ad;stroke:none;stroke-width:0.1;fill-opacity:1"
     inkscape:connector-curvature="0"
     id="path8"
     d="m 1069,33 c -9.5,1.6 -16.3,6.1 -21.9,14.7 l -3,4.5 -0.3,-8.8 -0.3,-8.9 h -15.5 -15.5 l -0.3,54.2 -0.2,54.3 h 15.9 16 l 0.3,-26.7 c 0.3,-25.2 0.5,-27.1 2.6,-32.5 4.2,-10.3 11.7,-16 23.8,-18 l 6.4,-1.1 V 48.4 c 0,-18.4 0.8,-16.9 -8,-15.4 z" />
  <path
     style="fill:#0078ad;stroke:none;stroke-width:0.1;fill-opacity:1"
     inkscape:connector-curvature="0"
     id="path10"
     d="m 928,33.6 c -10.5,1.2 -29.1,6.2 -31.1,8.3 -0.4,0.3 1,5.8 3,12.1 4.2,13.1 3.1,12.4 15.6,9.1 5.2,-1.4 11.1,-2.2 17,-2.3 14,-0.1 20.3,3.4 23,12.6 2.3,7.7 2.3,7.7 -3.7,5.8 -7.9,-2.5 -33.2,-2.4 -41.1,0.2 -9.6,3.1 -15.6,8.1 -19.7,16 -3.2,6.4 -3.5,7.6 -3.5,16.1 0,8.5 0.3,9.7 3.5,16.1 2.8,5.4 4.6,7.6 9,10.7 7.9,5.5 14.1,7 26.9,6.5 11.4,-0.4 17.9,-2.5 25.6,-8.4 l 3.5,-2.6 v 4.6 4.6 H 971.5 987 V 108.2 C 987,71.7 986.4,65.1 982.1,55.6 978,46.2 969.2,39.2 957,35.6 951.5,34 934.7,32.8 928,33.6 Z m 24.5,64.5 c 3.3,1.1 4.1,1.9 4.3,4.3 1,8.3 -4.3,16.2 -12.5,19 -6.8,2.3 -15.7,2.1 -20.3,-0.5 -4.5,-2.5 -6,-5.4 -6,-11.4 0,-5.4 3.5,-9.8 9.5,-12.1 4.8,-1.7 19,-1.4 25,0.7 z" />
  <path
     style="fill:#0078ad;stroke:none;stroke-width:0.1;fill-opacity:1"
     inkscape:connector-curvature="0"
     id="path12"
     d="m 772.7,34.7 c -0.3,0.5 7.6,12.7 17.5,27.2 l 18,26.3 -2.9,4.2 c -4.2,5.8 -32.8,47.8 -33.7,49.3 -0.6,1 2.9,1.3 15.8,1.3 h 16.4 l 10.3,-16.1 c 12.1,-18.8 9.2,-19.1 22.6,2.1 l 8.8,14 h 16.8 c 9.2,0 16.7,-0.2 16.7,-0.5 0,-0.3 -8.3,-12.7 -18.6,-27.6 l -18.5,-27.1 6.3,-9.1 c 3.4,-5.1 11.5,-16.9 17.9,-26.2 6.4,-9.4 11.5,-17.3 11.2,-17.8 -0.2,-0.4 -7.5,-0.7 -16.2,-0.7 h -15.7 l -9.8,15.5 c -5.4,8.5 -10.2,15.3 -10.6,15 -0.4,-0.3 -4,-5.8 -8,-12.2 -4,-6.5 -8.4,-13.3 -9.7,-15.1 L 804.9,34 H 789 c -8.7,0 -16.1,0.3 -16.3,0.7 z" />
  <path
     style="fill:#000000;stroke:none;stroke-width:0.1"
     inkscape:connector-curvature="0"
     id="path14"
     d="m 259.3,38 c -8.2,1.5 -14.3,4.9 -21,11.7 L 232,56 V 48 40 H 226.5 221 V 91.5 143 h 5.4 5.5 l 0.3,-34.8 0.3,-34.7 2.7,-5.7 c 6.7,-14.3 21.2,-21.9 37.3,-19.7 8,1.1 14,4.4 18.6,10.1 6.9,8.7 7.2,10.9 7.7,50 l 0.4,34.8 h 5.5 5.5 l -0.4,-36.3 C 309.3,65.8 308.7,62.4 301.2,52.5 292.4,40.8 275.8,35.1 259.3,38 Z" />
  <path
     style="fill:#000000;stroke:none;stroke-width:0.1"
     inkscape:connector-curvature="0"
     id="path16"
     d="M 377,38.1 C 359.5,41 343.7,56.6 338.5,76 c -1.9,7.2 -1.9,24 0,31.3 3.8,14.6 14.1,27.5 27,33.8 6.7,3.2 7.6,3.4 20.2,3.7 10,0.3 14.5,0 18.6,-1.2 6,-1.7 18.4,-9.5 23.2,-14.6 l 3,-3.1 -3.5,-2.9 c -1.9,-1.6 -3.9,-3 -4.3,-3 -0.5,0 -3,1.8 -5.5,4.1 -17.4,15.3 -42.3,15.1 -57,-0.4 -5.6,-6 -8.9,-11.8 -10.8,-19.2 -2.6,-9.4 -7,-8.5 41.2,-8.5 h 42.7 l -0.6,-8.8 C 430.8,60.6 415.6,41.6 393.4,38 386.6,36.9 384.6,36.9 377,38.1 Z m 19,11.1 c 11,3.4 20,13.9 23.5,27.5 C 422.2,87 426,86 384.5,86 355,86 348,85.7 348,84.7 c 0,-0.7 0.7,-3.8 1.6,-6.8 6.9,-23.1 26,-34.9 46.4,-28.7 z" />
  <path
     style="fill:#000000;stroke:none;stroke-width:0.1"
     inkscape:connector-curvature="0"
     id="path18"
     d="m 505,39.1 c -10.9,2.1 -22,10.1 -29.4,21 L 472,65.5 V 52.7 40 H 466.5 461 V 91.5 143 h 5.4 5.5 l 0.3,-28.8 c 0.4,-32.4 0.7,-33.8 9,-46.2 6.7,-10.1 20.7,-18 31.9,-18 h 3.9 v -6 -6 l -3.7,0.1 c -2.1,0.1 -5.8,0.5 -8.3,1 z" />
  <path
     style="fill:#000000;stroke:none;stroke-width:0.1"
     inkscape:connector-curvature="0"
     id="path20"
     d="m 563.5,38.6 c -1.1,0.2 -4.5,0.9 -7.5,1.5 -4.7,1 -20,6.6 -20,7.4 0,0.1 0.9,2.3 2,4.8 l 2,4.5 6.3,-2.5 c 9.9,-4.1 15.6,-5.3 25.3,-5.3 20.5,0 30.8,7.7 33.6,25.3 0.6,4.2 0.9,7.9 0.6,8.2 -0.3,0.3 -3.4,-0.2 -6.9,-1 -9,-2.2 -30.6,-3.1 -39.7,-1.5 -9,1.5 -19.9,6.8 -24.3,11.7 -5.5,6.3 -7.3,11.7 -7.3,21.3 0,7.2 0.4,9.3 2.6,13.6 3.3,6.3 9.3,11.8 16.7,15.3 5.2,2.4 6.5,2.6 20.1,2.6 14.2,0 14.6,-0.1 21.3,-3.2 3.7,-1.8 9.2,-5.5 12.2,-8.4 l 5.5,-5.2 v 7.7 7.6 h 5.1 5 l -0.3,-38.7 -0.3,-38.8 -2.9,-6.2 C 607.6,48.3 597.5,41.2 584,39.1 577.7,38 567.5,37.8 563.5,38.6 Z m 34.3,52.9 8.2,1.8 v 7.1 c 0,8.7 -1.1,12.8 -4.9,18.8 -6.1,9.6 -19,16 -32.4,16.1 -8.9,0 -14.1,-1.4 -20.3,-5.6 -17,-11.4 -11,-34.3 10.3,-39.7 5.7,-1.4 29.6,-0.5 39.1,1.5 z" />
  <path
     style="fill:#000000;stroke:none;stroke-width:0.1"
     inkscape:connector-curvature="0"
     id="path22"
     d="M 173,91.5 V 143 h 5 5 V 91.5 40 h -5 -5 z" />
</svg>
