<?xml version="1.0" encoding="UTF-8" standalone="no"?>
<svg
   xmlns:dc="http://purl.org/dc/elements/1.1/"
   xmlns:cc="http://creativecommons.org/ns#"
   xmlns:rdf="http://www.w3.org/1999/02/22-rdf-syntax-ns#"
   xmlns:svg="http://www.w3.org/2000/svg"
   xmlns="http://www.w3.org/2000/svg"
   xmlns:sodipodi="http://sodipodi.sourceforge.net/DTD/sodipodi-0.dtd"
   xmlns:inkscape="http://www.inkscape.org/namespaces/inkscape"
   viewBox="0 0 512 512"
   version="1.1"
   id="svg4"
   sodipodi:docname="sign-out-alt.svg"
   inkscape:version="0.92.3 (2405546, 2018-03-11)">
  <metadata
     id="metadata10">
    <rdf:RDF>
      <cc:Work
         rdf:about="">
        <dc:format>image/svg+xml</dc:format>
        <dc:type
           rdf:resource="http://purl.org/dc/dcmitype/StillImage" />
      </cc:Work>
    </rdf:RDF>
  </metadata>
  <defs
     id="defs8" />
  <sodipodi:namedview
     pagecolor="#ffffff"
     bordercolor="#666666"
     borderopacity="1"
     objecttolerance="10"
     gridtolerance="10"
     guidetolerance="10"
     inkscape:pageopacity="0"
     inkscape:pageshadow="2"
     inkscape:window-width="1920"
     inkscape:window-height="1019"
     id="namedview6"
     showgrid="false"
     inkscape:zoom="0.4609375"
     inkscape:cx="796.20339"
     inkscape:cy="256"
     inkscape:window-x="0"
     inkscape:window-y="33"
     inkscape:window-maximized="1"
     inkscape:current-layer="svg4" />
  <path
     d="M160 217.1c0-8.8 7.2-16 16-16h144v-93.9c0-7.1 8.6-10.7 13.6-5.7l141.6 143.1c6.3 6.3 6.3 16.4 0 22.7L333.6 410.4c-5 5-13.6 1.5-13.6-5.7v-93.9H176c-8.8 0-16-7.2-16-16v-77.7m-32 0v77.7c0 26.5 21.5 48 48 48h112v61.9c0 35.5 43 53.5 68.2 28.3l141.7-143c18.8-18.8 18.8-49.2 0-68L356.2 78.9c-25.1-25.1-68.2-7.3-68.2 28.3v61.9H176c-26.5 0-48 21.6-48 48zM0 112v288c0 26.5 21.5 48 48 48h132c6.6 0 12-5.4 12-12v-8c0-6.6-5.4-12-12-12H48c-8.8 0-16-7.2-16-16V112c0-8.8 7.2-16 16-16h132c6.6 0 12-5.4 12-12v-8c0-6.6-5.4-12-12-12H48C21.5 64 0 85.5 0 112z"
     id="path2"
     style="fill:#333333" />
</svg>
